<?xml version="1.0" encoding="UTF-8" standalone="no"?>
<svg
   xmlns:dc="http://purl.org/dc/elements/1.1/"
   xmlns:cc="http://creativecommons.org/ns#"
   xmlns:rdf="http://www.w3.org/1999/02/22-rdf-syntax-ns#"
   xmlns:svg="http://www.w3.org/2000/svg"
   xmlns="http://www.w3.org/2000/svg"
   xmlns:sodipodi="http://sodipodi.sourceforge.net/DTD/sodipodi-0.dtd"
   xmlns:inkscape="http://www.inkscape.org/namespaces/inkscape"
   version="1.1"
   id="svg10"
   xml:space="preserve"
   width="104.52533"
   height="104.52399"
   viewBox="0 0 104.52533 104.524"
   sodipodi:docname="logo_vert_sans_texte.svg"
   inkscape:version="1.0.2 (1.0.2+r75+1)"><metadata
     id="metadata16"><rdf:RDF><cc:Work
         rdf:about=""><dc:format>image/svg+xml</dc:format><dc:type
           rdf:resource="http://purl.org/dc/dcmitype/StillImage" /><dc:title></dc:title></cc:Work></rdf:RDF></metadata><defs
     id="defs14"><clipPath
       clipPathUnits="userSpaceOnUse"
       id="clipPath26"><path
         d="m 570.464,199.943 c -5.501,0 -10.001,-4.5 -10.001,-10.001 v 0 -58.39 c 0,-5.502 4.5,-10.002 10.001,-10.002 v 0 h 58.391 c 5.501,0 10.001,4.5 10.001,10.002 v 0 58.39 c 0,5.501 -4.5,10.001 -10.001,10.001 v 0 z"
         id="path24" /></clipPath><linearGradient
       x1="0"
       y1="0"
       x2="1"
       y2="0"
       gradientUnits="userSpaceOnUse"
       gradientTransform="matrix(0,-74.107101,-74.107101,0,599.66016,200.91309)"
       spreadMethod="pad"
       id="linearGradient38"><stop
         style="stop-opacity:1;stop-color:#f29049"
         offset="0"
         id="stop32" /><stop
         style="stop-opacity:1;stop-color:#e84e0e"
         offset="0.539322"
         id="stop34" /><stop
         style="stop-opacity:1;stop-color:#e63312"
         offset="1"
         id="stop36" /></linearGradient><clipPath
       clipPathUnits="userSpaceOnUse"
       id="clipPath48"><path
         d="M 0,595.28 H 841.89 V 0 H 0 Z"
         id="path46" /></clipPath><clipPath
       clipPathUnits="userSpaceOnUse"
       id="clipPath64"><path
         d="m 69.325,418.069 c -4.02,-4.289 -6.03,-11.226 -6.03,-20.814 v 0 c 0,-9.766 2.01,-16.882 6.03,-21.347 v 0 c 4.02,-4.467 9.988,-6.7 17.909,-6.7 v 0 c 2.203,0 4.333,0.193 6.387,0.58 v 0 c 2.054,0.386 3.855,0.908 5.404,1.564 v 0 c 2.203,0.951 3.677,2.038 4.422,3.26 v 0 c 0.743,1.22 1.117,3.022 1.117,5.404 v 0 10.541 c 0,2.083 -0.626,3.825 -1.876,5.225 v 0 c -1.251,1.398 -3.126,2.099 -5.627,2.099 v 0 H 82.858 v -8.129 h 11.79 v -11.165 c -2.204,-0.834 -4.675,-1.25 -7.414,-1.25 v 0 c -4.645,0 -8.144,1.562 -10.496,4.689 v 0 c -2.352,3.125 -3.528,8.202 -3.528,15.229 v 0 c 0,6.909 1.176,11.85 3.528,14.829 v 0 c 2.352,2.976 5.851,4.467 10.496,4.467 v 0 c 1.072,0 2.218,-0.15 3.439,-0.448 v 0 c 1.221,-0.298 2.427,-0.714 3.618,-1.25 v 0 c 1.191,-0.536 2.323,-1.147 3.394,-1.831 v 0 c 1.072,-0.685 2.024,-1.415 2.859,-2.188 v 0 l 3.93,7.503 c -2.025,1.607 -4.555,3.037 -7.593,4.287 v 0 c -3.036,1.251 -6.253,1.875 -9.647,1.875 v 0 c -7.921,0 -13.889,-2.142 -17.909,-6.43"
         id="path62" /></clipPath><linearGradient
       x1="0"
       y1="0"
       x2="1"
       y2="0"
       gradientUnits="userSpaceOnUse"
       gradientTransform="matrix(0,-64.963104,-64.963104,0,83.929199,431.40039)"
       spreadMethod="pad"
       id="linearGradient76"><stop
         style="stop-opacity:1;stop-color:#7a9298"
         offset="0"
         id="stop70" /><stop
         style="stop-opacity:1;stop-color:#405d64"
         offset="0.539322"
         id="stop72" /><stop
         style="stop-opacity:1;stop-color:#163538"
         offset="1"
         id="stop74" /></linearGradient><clipPath
       clipPathUnits="userSpaceOnUse"
       id="clipPath86"><path
         d="m 119.847,424.143 c -2.443,0 -4.288,-0.701 -5.538,-2.1 v 0 c -1.251,-1.399 -1.877,-3.17 -1.877,-5.314 v 0 -39.661 c 0,-2.143 0.626,-3.9 1.877,-5.269 v 0 c 1.25,-1.372 3.095,-2.056 5.538,-2.056 v 0 h 28.226 v 8.04 h -25.725 v 16.614 h 21.17 v 8.04 h -21.17 v 13.577 h 25.725 v 8.129 z"
         id="path84" /></clipPath><linearGradient
       x1="0"
       y1="0"
       x2="1"
       y2="0"
       gradientUnits="userSpaceOnUse"
       gradientTransform="matrix(0,-64.96373,-64.96373,0,130.25293,431.40088)"
       spreadMethod="pad"
       id="linearGradient98"><stop
         style="stop-opacity:1;stop-color:#7a9298"
         offset="0"
         id="stop92" /><stop
         style="stop-opacity:1;stop-color:#405d64"
         offset="0.539322"
         id="stop94" /><stop
         style="stop-opacity:1;stop-color:#163538"
         offset="1"
         id="stop96" /></linearGradient><clipPath
       clipPathUnits="userSpaceOnUse"
       id="clipPath108"><path
         d="m 157.157,417.577 c -3.604,-4.615 -5.404,-11.388 -5.404,-20.322 v 0 c 0,-8.991 1.816,-15.915 5.449,-20.767 v 0 c 3.632,-4.855 9.259,-7.28 16.882,-7.28 v 0 c 7.622,0 13.235,2.425 16.837,7.28 v 0 c 3.603,4.852 5.406,11.776 5.406,20.767 v 0 c 0,8.934 -1.788,15.707 -5.361,20.322 v 0 c -3.573,4.615 -9.199,6.922 -16.882,6.922 v 0 c -7.682,0 -13.325,-2.307 -16.927,-6.922 m 7.325,-35.104 c -1.936,3.424 -2.904,8.351 -2.904,14.782 v 0 c 0,6.433 0.968,11.256 2.904,14.472 v 0 c 1.934,3.215 5.136,4.824 9.602,4.824 v 0 c 4.466,0 7.667,-1.609 9.602,-4.824 v 0 c 1.935,-3.216 2.904,-8.039 2.904,-14.472 v 0 c 0,-6.431 -0.969,-11.358 -2.904,-14.782 v 0 c -1.935,-3.425 -5.136,-5.136 -9.602,-5.136 v 0 c -4.466,0 -7.668,1.711 -9.602,5.136"
         id="path106" /></clipPath><linearGradient
       x1="0"
       y1="0"
       x2="1"
       y2="0"
       gradientUnits="userSpaceOnUse"
       gradientTransform="matrix(0,-64.963104,-64.963104,0,174.04004,431.40039)"
       spreadMethod="pad"
       id="linearGradient120"><stop
         style="stop-opacity:1;stop-color:#7a9298"
         offset="0"
         id="stop114" /><stop
         style="stop-opacity:1;stop-color:#405d64"
         offset="0.539322"
         id="stop116" /><stop
         style="stop-opacity:1;stop-color:#163538"
         offset="1"
         id="stop118" /></linearGradient><clipPath
       clipPathUnits="userSpaceOnUse"
       id="clipPath130"><path
         d="m 198.88,423.786 v -6.075 h 16.614 v -47.968 h 7.146 v 47.968 h 16.525 v 6.075 z"
         id="path128" /></clipPath><linearGradient
       x1="0"
       y1="0"
       x2="1"
       y2="0"
       gradientUnits="userSpaceOnUse"
       gradientTransform="matrix(0,-64.963867,-64.963867,0,219.02295,431.40039)"
       spreadMethod="pad"
       id="linearGradient142"><stop
         style="stop-opacity:1;stop-color:#7a9298"
         offset="0"
         id="stop136" /><stop
         style="stop-opacity:1;stop-color:#405d64"
         offset="0.539322"
         id="stop138" /><stop
         style="stop-opacity:1;stop-color:#163538"
         offset="1"
         id="stop140" /></linearGradient><clipPath
       clipPathUnits="userSpaceOnUse"
       id="clipPath152"><path
         d="m 251.982,423.786 c -1.906,0 -3.409,-0.597 -4.509,-1.787 v 0 c -1.103,-1.192 -1.653,-2.739 -1.653,-4.645 v 0 -47.611 h 7.146 v 21.885 h 10.899 c 3.751,0 6.652,-1.058 8.709,-3.171 v 0 c 2.053,-2.114 3.081,-5.345 3.081,-9.692 v 0 -9.022 h 7.236 v 9.558 c 0,3.394 -0.67,6.388 -2.011,8.978 v 0 c -1.339,2.589 -3.351,4.569 -6.029,5.94 v 0 c 2.917,1.13 4.986,2.902 6.207,5.314 v 0 c 1.221,2.411 1.833,5.137 1.833,8.174 v 0 c 0,4.883 -1.461,8.782 -4.378,11.701 v 0 c -2.919,2.918 -7.653,4.378 -14.203,4.378 v 0 z m 0.984,-6.968 c 0,0.595 0.298,0.893 0.892,0.893 v 0 h 10.452 c 4.289,0 7.251,-0.908 8.888,-2.724 v 0 c 1.638,-1.817 2.457,-4.243 2.457,-7.28 v 0 c 0,-3.037 -0.819,-5.465 -2.457,-7.28 v 0 c -1.637,-1.818 -4.599,-2.724 -8.888,-2.724 v 0 h -11.344 z"
         id="path150" /></clipPath><linearGradient
       x1="0"
       y1="0"
       x2="1"
       y2="0"
       gradientUnits="userSpaceOnUse"
       gradientTransform="matrix(0,-64.963867,-64.963867,0,264.35498,431.40039)"
       spreadMethod="pad"
       id="linearGradient164"><stop
         style="stop-opacity:1;stop-color:#7a9298"
         offset="0"
         id="stop158" /><stop
         style="stop-opacity:1;stop-color:#405d64"
         offset="0.539322"
         id="stop160" /><stop
         style="stop-opacity:1;stop-color:#163538"
         offset="1"
         id="stop162" /></linearGradient><clipPath
       clipPathUnits="userSpaceOnUse"
       id="clipPath174"><path
         d="m 293.635,369.743 h 7.145 v 54.042 h -7.145 z"
         id="path172" /></clipPath><linearGradient
       x1="0"
       y1="0"
       x2="1"
       y2="0"
       gradientUnits="userSpaceOnUse"
       gradientTransform="matrix(0,-64.963867,-64.963867,0,297.20752,431.40039)"
       spreadMethod="pad"
       id="linearGradient186"><stop
         style="stop-opacity:1;stop-color:#7a9298"
         offset="0"
         id="stop180" /><stop
         style="stop-opacity:1;stop-color:#405d64"
         offset="0.539322"
         id="stop182" /><stop
         style="stop-opacity:1;stop-color:#163538"
         offset="1"
         id="stop184" /></linearGradient><clipPath
       clipPathUnits="userSpaceOnUse"
       id="clipPath196"><path
         d="m 318.019,423.786 c -1.908,0 -3.426,-0.597 -4.556,-1.787 v 0 c -1.132,-1.192 -1.697,-2.739 -1.697,-4.645 v 0 -41.268 c 0,-1.906 0.565,-3.439 1.697,-4.601 v 0 c 1.13,-1.16 2.648,-1.742 4.556,-1.742 v 0 h 12.327 c 6.551,0 11.269,1.458 14.158,4.377 v 0 c 2.889,2.918 4.331,6.819 4.331,11.702 v 0 c 0,2.859 -0.594,5.404 -1.786,7.638 v 0 c -1.191,2.233 -3.037,3.914 -5.538,5.047 v 0 c 1.845,0.951 3.246,2.367 4.198,4.242 v 0 c 0.952,1.876 1.429,3.975 1.429,6.298 v 0 c 0,2.263 -0.313,4.301 -0.936,6.118 v 0 c -0.625,1.817 -1.609,3.364 -2.949,4.645 v 0 c -1.34,1.28 -3.067,2.262 -5.181,2.948 v 0 c -2.115,0.684 -4.689,1.028 -7.726,1.028 v 0 z m 0.983,-6.968 c 0,0.595 0.295,0.893 0.892,0.893 v 0 h 10.452 c 3.692,0 6.222,-0.774 7.592,-2.322 v 0 c 1.369,-1.55 2.056,-3.662 2.056,-6.342 v 0 c 0,-2.561 -0.717,-4.497 -2.146,-5.806 v 0 c -1.429,-1.311 -3.928,-1.965 -7.502,-1.965 v 0 h -11.344 z m 0,-40.196 v 18.669 h 11.344 c 4.228,0 7.159,-0.849 8.799,-2.546 v 0 c 1.636,-1.697 2.456,-4.006 2.456,-6.923 v 0 c 0,-1.489 -0.194,-2.858 -0.58,-4.109 v 0 c -0.39,-1.251 -1.014,-2.322 -1.876,-3.215 v 0 c -0.864,-0.893 -2.01,-1.579 -3.44,-2.055 v 0 c -1.428,-0.477 -3.215,-0.714 -5.359,-0.714 v 0 h -10.452 c -0.597,0 -0.892,0.296 -0.892,0.893"
         id="path194" /></clipPath><linearGradient
       x1="0"
       y1="0"
       x2="1"
       y2="0"
       gradientUnits="userSpaceOnUse"
       gradientTransform="matrix(0,-64.963867,-64.963867,0,330.30127,431.40039)"
       spreadMethod="pad"
       id="linearGradient208"><stop
         style="stop-opacity:1;stop-color:#7a9298"
         offset="0"
         id="stop202" /><stop
         style="stop-opacity:1;stop-color:#405d64"
         offset="0.539322"
         id="stop204" /><stop
         style="stop-opacity:1;stop-color:#163538"
         offset="1"
         id="stop206" /></linearGradient><clipPath
       clipPathUnits="userSpaceOnUse"
       id="clipPath218"><path
         d="m 388.593,423.786 v -35.641 c 0,-4.467 -1.102,-7.727 -3.305,-9.781 v 0 c -2.202,-2.055 -5.18,-3.082 -8.931,-3.082 v 0 c -3.753,0 -6.686,1.027 -8.798,3.082 v 0 c -2.117,2.054 -3.172,5.314 -3.172,9.781 v 0 35.641 h -7.236 v -36.267 c 0,-5.836 1.727,-10.348 5.182,-13.533 v 0 c 3.451,-3.185 8.129,-4.778 14.024,-4.778 v 0 c 6.251,0 11.044,1.593 14.381,4.778 v 0 c 3.332,3.185 5.002,7.697 5.002,13.533 v 0 36.267 z"
         id="path216" /></clipPath><linearGradient
       x1="0"
       y1="0"
       x2="1"
       y2="0"
       gradientUnits="userSpaceOnUse"
       gradientTransform="matrix(0,-64.963791,-64.963791,0,376.4458,431.40039)"
       spreadMethod="pad"
       id="linearGradient230"><stop
         style="stop-opacity:1;stop-color:#7a9298"
         offset="0"
         id="stop224" /><stop
         style="stop-opacity:1;stop-color:#405d64"
         offset="0.539322"
         id="stop226" /><stop
         style="stop-opacity:1;stop-color:#163538"
         offset="1"
         id="stop228" /></linearGradient><clipPath
       clipPathUnits="userSpaceOnUse"
       id="clipPath240"><path
         d="M 0,595.28 H 841.89 V 0 H 0 Z"
         id="path238" /></clipPath><clipPath
       clipPathUnits="userSpaceOnUse"
       id="clipPath252"><path
         d="m 571.282,109.777 c -5.501,0 -10.001,-4.5 -10.001,-10 v 0 -58.393 c 0,-5.501 4.5,-10.001 10.001,-10.001 v 0 h 58.39 c 5.502,0 10.002,4.5 10.002,10.001 v 0 58.393 c 0,5.5 -4.5,10 -10.002,10 v 0 z"
         id="path250" /></clipPath><linearGradient
       x1="0"
       y1="0"
       x2="1"
       y2="0"
       gradientUnits="userSpaceOnUse"
       gradientTransform="matrix(0,-74.108948,-74.108948,0,600.47754,110.74707)"
       spreadMethod="pad"
       id="linearGradient264"><stop
         style="stop-opacity:1;stop-color:#f29049"
         offset="0"
         id="stop258" /><stop
         style="stop-opacity:1;stop-color:#e84e0e"
         offset="0.539322"
         id="stop260" /><stop
         style="stop-opacity:1;stop-color:#e63312"
         offset="1"
         id="stop262" /></linearGradient><clipPath
       clipPathUnits="userSpaceOnUse"
       id="clipPath274"><path
         d="M 0,595.28 H 841.89 V 0 H 0 Z"
         id="path272" /></clipPath><clipPath
       clipPathUnits="userSpaceOnUse"
       id="clipPath298"><path
         d="m 227.682,521.578 c 0.914,0.924 1.14,0.631 0.481,-1.113 v 0 c 0.364,-0.78 0.855,-1.753 1.528,-2.989 v 0 l 3.398,-5.262 c 0.233,-0.822 -1.839,-0.053 -0.37,-2.667 v 0 c 1.95,-3.703 10.147,-15.807 14.357,-22.991 v 0 c 3.269,-5.617 6.585,-11.388 9.845,-17.265 v 0 c 1.631,-2.94 3.247,-5.906 4.839,-8.891 v 0 l 1.187,-2.242 0.443,-0.846 0.092,-0.193 c 0.112,-0.246 0.251,-0.504 0.316,-0.697 v 0 l -0.621,0.17 -0.296,0.078 -1.355,0.29 c -2.619,0.544 -5.25,1.004 -7.874,1.421 v 0 c -5.031,0.788 -10.047,1.341 -14.99,1.689 v 0 l -1.859,-4.516 c 4.93,-0.266 9.832,-0.764 14.7,-1.494 v 0 c 2.716,-0.401 5.419,-0.885 8.115,-1.432 v 0 l 1.01,-0.203 1.276,-0.282 c 1.198,-0.265 2.387,-0.514 3.613,-0.821 v 0 l 7.321,-1.779 c -1.637,3.233 -14.35,27.331 -14.35,27.331 v 0 c -5.507,9.604 -11.325,19.13 -17.303,28.704 v 0 c -2.522,3.954 -4.909,7.217 -6.986,9.892 v 0 c 0.323,-0.674 0.741,-1.493 1.233,-2.421 v 0 c -0.386,0.626 -0.774,1.251 -1.16,1.875 v 0 l -1.595,2.617 -2.301,2.805 c -1.29,1.465 -2.382,2.529 -2.794,2.529 v 0 c -0.247,0 -0.249,-0.385 0.1,-1.297"
         id="path296" /></clipPath><linearGradient
       x1="0"
       y1="0"
       x2="1"
       y2="0"
       gradientUnits="userSpaceOnUse"
       gradientTransform="matrix(0,-62.427948,-62.427948,0,250.12207,505.56348)"
       spreadMethod="pad"
       id="linearGradient310"><stop
         style="stop-opacity:1;stop-color:#7a9298"
         offset="0"
         id="stop304" /><stop
         style="stop-opacity:1;stop-color:#405d64"
         offset="0.539322"
         id="stop306" /><stop
         style="stop-opacity:1;stop-color:#163538"
         offset="1"
         id="stop308" /></linearGradient><clipPath
       clipPathUnits="userSpaceOnUse"
       id="clipPath320"><path
         d="m 218.534,509.331 -0.442,0.235 c 5.94,10.188 5.094,9.852 4.248,9.516 v 0 c -0.352,-0.139 -0.705,-0.279 -0.567,0.342 v 0 c -4.104,-7.263 -8.313,-14.486 -12.659,-21.651 v 0 l -3.983,-7.354 c -3.237,-6.048 -6.375,-12.09 -9.391,-18.139 v 0 c -1.51,-3.026 -2.988,-6.055 -4.439,-9.086 v 0 l -2.66,-5.636 -3.93,-8.525 9.318,2.237 3.538,0.761 2.401,0.467 c 3.208,0.599 6.429,1.097 9.656,1.498 v 0 c 3.921,0.484 7.852,0.806 11.788,0.996 v 0 l -2.299,5.584 c -2.015,-0.115 -4.026,-0.258 -6.034,-0.453 v 0 c -4.071,-0.402 -8.127,-0.95 -12.149,-1.667 v 0 l -3.014,-0.566 -1.499,-0.299 -1.242,-0.269 -0.319,-0.115 c -0.002,0.03 0.018,0.081 0.03,0.131 v 0 l 0.035,0.122 0.024,0.073 0.374,0.809 1.85,3.92 c 1.251,2.614 2.536,5.234 3.847,7.84 v 0 c 2.615,5.218 5.32,10.392 8.017,15.428 v 0 c 5.392,10.075 10.735,19.608 15.119,27.897 v 0 c 1.879,3.571 3.026,5.999 3.571,7.442 v 0 c -0.202,0.432 -0.364,0.806 -0.482,1.113 v 0 c -1.454,-1.472 -4.634,-6.014 -8.707,-12.651"
         id="path318" /></clipPath><linearGradient
       x1="0"
       y1="0"
       x2="1"
       y2="0"
       gradientUnits="userSpaceOnUse"
       gradientTransform="matrix(0,-56.123581,-56.123581,0,206.2168,499.90625)"
       spreadMethod="pad"
       id="linearGradient332"><stop
         style="stop-opacity:1;stop-color:#7a9298"
         offset="0"
         id="stop326" /><stop
         style="stop-opacity:1;stop-color:#405d64"
         offset="0.539322"
         id="stop328" /><stop
         style="stop-opacity:1;stop-color:#163538"
         offset="1"
         id="stop330" /></linearGradient><clipPath
       clipPathUnits="userSpaceOnUse"
       id="clipPath342"><path
         d="m 547.588,503.938 c -2.958,-3.155 -4.436,-8.259 -4.436,-15.314 v 0 c 0,-7.186 1.478,-12.421 4.436,-15.707 v 0 c 2.957,-3.286 7.348,-4.93 13.177,-4.93 v 0 c 1.62,0 3.187,0.143 4.699,0.428 v 0 c 1.512,0.284 2.836,0.667 3.975,1.149 v 0 c 1.622,0.7 2.705,1.5 3.254,2.4 v 0 c 0.548,0.897 0.82,2.223 0.82,3.976 v 0 7.755 c 0,1.534 -0.459,2.814 -1.379,3.845 v 0 c -0.919,1.029 -2.3,1.544 -4.139,1.544 v 0 h -10.451 v -5.98 h 8.675 v -8.215 c -1.62,-0.614 -3.439,-0.92 -5.454,-0.92 v 0 c -3.418,0 -5.992,1.149 -7.724,3.449 v 0 c -1.731,2.301 -2.595,6.036 -2.595,11.206 v 0 c 0,5.083 0.864,8.719 2.595,10.91 v 0 c 1.732,2.191 4.306,3.286 7.724,3.286 v 0 c 0.789,0 1.631,-0.11 2.529,-0.328 v 0 c 0.898,-0.22 1.786,-0.526 2.663,-0.919 v 0 c 0.875,-0.395 1.708,-0.845 2.497,-1.349 v 0 c 0.788,-0.504 1.489,-1.041 2.103,-1.61 v 0 l 2.891,5.521 c -1.489,1.183 -3.351,2.234 -5.586,3.154 v 0 c -2.234,0.92 -4.601,1.38 -7.097,1.38 v 0 c -5.829,0 -10.22,-1.577 -13.177,-4.731"
         id="path340" /></clipPath><linearGradient
       x1="0"
       y1="0"
       x2="1"
       y2="0"
       gradientUnits="userSpaceOnUse"
       gradientTransform="matrix(0,-47.797836,-47.797836,0,558.33203,513.74658)"
       spreadMethod="pad"
       id="linearGradient354"><stop
         style="stop-opacity:1;stop-color:#7a9298"
         offset="0"
         id="stop348" /><stop
         style="stop-opacity:1;stop-color:#405d64"
         offset="0.539322"
         id="stop350" /><stop
         style="stop-opacity:1;stop-color:#163538"
         offset="1"
         id="stop352" /></linearGradient><clipPath
       clipPathUnits="userSpaceOnUse"
       id="clipPath364"><path
         d="m 584.76,508.406 c -1.797,0 -3.156,-0.515 -4.076,-1.544 v 0 c -0.92,-1.03 -1.379,-2.333 -1.379,-3.91 v 0 -29.181 c 0,-1.578 0.459,-2.87 1.379,-3.877 v 0 c 0.92,-1.009 2.279,-1.512 4.076,-1.512 v 0 h 20.767 v 5.915 h -18.928 v 12.224 h 15.577 v 5.915 h -15.577 v 9.99 h 18.928 v 5.98 z"
         id="path362" /></clipPath><linearGradient
       x1="0"
       y1="0"
       x2="1"
       y2="0"
       gradientUnits="userSpaceOnUse"
       gradientTransform="matrix(0,-47.797546,-47.797546,0,592.41602,513.74658)"
       spreadMethod="pad"
       id="linearGradient376"><stop
         style="stop-opacity:1;stop-color:#7a9298"
         offset="0"
         id="stop370" /><stop
         style="stop-opacity:1;stop-color:#405d64"
         offset="0.539322"
         id="stop372" /><stop
         style="stop-opacity:1;stop-color:#163538"
         offset="1"
         id="stop374" /></linearGradient><clipPath
       clipPathUnits="userSpaceOnUse"
       id="clipPath386"><path
         d="m 612.211,503.576 c -2.652,-3.396 -3.977,-8.379 -3.977,-14.952 v 0 c 0,-6.616 1.337,-11.71 4.01,-15.281 v 0 c 2.672,-3.571 6.812,-5.356 12.421,-5.356 v 0 c 5.609,0 9.739,1.785 12.39,5.356 v 0 c 2.65,3.571 3.976,8.665 3.976,15.281 v 0 c 0,6.573 -1.316,11.556 -3.944,14.952 v 0 c -2.629,3.395 -6.768,5.093 -12.422,5.093 v 0 c -5.651,0 -9.803,-1.698 -12.454,-5.093 m 5.39,-25.829 c -1.425,2.519 -2.137,6.145 -2.137,10.877 v 0 c 0,4.733 0.712,8.281 2.137,10.648 v 0 c 1.423,2.366 3.778,3.548 7.064,3.548 v 0 c 3.288,0 5.642,-1.182 7.066,-3.548 v 0 c 1.423,-2.367 2.135,-5.915 2.135,-10.648 v 0 c 0,-4.732 -0.712,-8.358 -2.135,-10.877 v 0 c -1.424,-2.52 -3.778,-3.778 -7.066,-3.778 v 0 c -3.286,0 -5.641,1.258 -7.064,3.778"
         id="path384" /></clipPath><linearGradient
       x1="0"
       y1="0"
       x2="1"
       y2="0"
       gradientUnits="userSpaceOnUse"
       gradientTransform="matrix(0,-47.797836,-47.797836,0,624.63281,513.74658)"
       spreadMethod="pad"
       id="linearGradient398"><stop
         style="stop-opacity:1;stop-color:#7a9298"
         offset="0"
         id="stop392" /><stop
         style="stop-opacity:1;stop-color:#405d64"
         offset="0.539322"
         id="stop394" /><stop
         style="stop-opacity:1;stop-color:#163538"
         offset="1"
         id="stop396" /></linearGradient><clipPath
       clipPathUnits="userSpaceOnUse"
       id="clipPath408"><path
         d="m 642.908,508.144 v -4.47 h 12.225 v -35.292 h 5.257 v 35.292 h 12.158 v 4.47 z"
         id="path406" /></clipPath><linearGradient
       x1="0"
       y1="0"
       x2="1"
       y2="0"
       gradientUnits="userSpaceOnUse"
       gradientTransform="matrix(0,-47.798142,-47.798142,0,657.72852,513.74707)"
       spreadMethod="pad"
       id="linearGradient420"><stop
         style="stop-opacity:1;stop-color:#7a9298"
         offset="0"
         id="stop414" /><stop
         style="stop-opacity:1;stop-color:#405d64"
         offset="0.539322"
         id="stop416" /><stop
         style="stop-opacity:1;stop-color:#163538"
         offset="1"
         id="stop418" /></linearGradient><clipPath
       clipPathUnits="userSpaceOnUse"
       id="clipPath430"><path
         d="m 681.979,508.144 c -1.403,0 -2.507,-0.439 -3.317,-1.314 v 0 c -0.811,-0.877 -1.217,-2.016 -1.217,-3.418 v 0 -35.03 h 5.258 v 16.101 h 8.02 c 2.759,0 4.894,-0.777 6.408,-2.332 v 0 c 1.509,-1.556 2.266,-3.933 2.266,-7.132 v 0 -6.637 h 5.324 v 7.032 c 0,2.497 -0.494,4.699 -1.479,6.605 v 0 c -0.986,1.906 -2.465,3.363 -4.436,4.371 v 0 c 2.146,0.831 3.669,2.135 4.568,3.91 v 0 c 0.897,1.774 1.347,3.779 1.347,6.014 v 0 c 0,3.592 -1.076,6.462 -3.22,8.609 v 0 c -2.149,2.147 -5.632,3.221 -10.45,3.221 v 0 z m 0.724,-5.127 c 0,0.439 0.22,0.657 0.656,0.657 v 0 h 7.692 c 3.155,0 5.335,-0.668 6.538,-2.003 v 0 c 1.205,-1.338 1.808,-3.123 1.808,-5.357 v 0 c 0,-2.235 -0.603,-4.021 -1.808,-5.357 v 0 c -1.203,-1.337 -3.383,-2.004 -6.538,-2.004 v 0 h -8.348 z"
         id="path428" /></clipPath><linearGradient
       x1="0"
       y1="0"
       x2="1"
       y2="0"
       gradientUnits="userSpaceOnUse"
       gradientTransform="matrix(0,-47.798142,-47.798142,0,691.08301,513.74707)"
       spreadMethod="pad"
       id="linearGradient442"><stop
         style="stop-opacity:1;stop-color:#7a9298"
         offset="0"
         id="stop436" /><stop
         style="stop-opacity:1;stop-color:#405d64"
         offset="0.539322"
         id="stop438" /><stop
         style="stop-opacity:1;stop-color:#163538"
         offset="1"
         id="stop440" /></linearGradient><clipPath
       clipPathUnits="userSpaceOnUse"
       id="clipPath452"><path
         d="m 712.626,468.382 h 5.258 v 39.762 h -5.258 z"
         id="path450" /></clipPath><linearGradient
       x1="0"
       y1="0"
       x2="1"
       y2="0"
       gradientUnits="userSpaceOnUse"
       gradientTransform="matrix(0,-47.798142,-47.798142,0,715.25488,513.74707)"
       spreadMethod="pad"
       id="linearGradient464"><stop
         style="stop-opacity:1;stop-color:#7a9298"
         offset="0"
         id="stop458" /><stop
         style="stop-opacity:1;stop-color:#405d64"
         offset="0.539322"
         id="stop460" /><stop
         style="stop-opacity:1;stop-color:#163538"
         offset="1"
         id="stop462" /></linearGradient><clipPath
       clipPathUnits="userSpaceOnUse"
       id="clipPath474"><path
         d="m 730.569,508.144 c -1.406,0 -2.522,-0.439 -3.355,-1.314 v 0 c -0.832,-0.877 -1.247,-2.016 -1.247,-3.418 v 0 -30.364 c 0,-1.402 0.415,-2.53 1.247,-3.385 v 0 c 0.833,-0.854 1.949,-1.281 3.355,-1.281 v 0 h 9.068 c 4.821,0 8.291,1.072 10.417,3.22 v 0 c 2.126,2.146 3.188,5.017 3.188,8.61 v 0 c 0,2.102 -0.44,3.976 -1.316,5.619 v 0 c -0.875,1.643 -2.233,2.881 -4.074,3.713 v 0 c 1.357,0.7 2.387,1.742 3.088,3.122 v 0 c 0.7,1.38 1.052,2.924 1.052,4.633 v 0 c 0,1.666 -0.23,3.166 -0.689,4.502 v 0 c -0.46,1.337 -1.184,2.475 -2.169,3.418 v 0 c -0.987,0.942 -2.257,1.665 -3.812,2.169 v 0 c -1.557,0.503 -3.449,0.756 -5.685,0.756 v 0 z m 0.721,-5.127 c 0,0.439 0.217,0.657 0.658,0.657 v 0 h 7.689 c 2.717,0 4.578,-0.569 5.585,-1.708 v 0 c 1.008,-1.14 1.514,-2.694 1.514,-4.667 v 0 c 0,-1.883 -0.527,-3.308 -1.579,-4.272 v 0 c -1.051,-0.964 -2.89,-1.445 -5.52,-1.445 v 0 h -8.347 z m 0,-29.575 v 13.736 h 8.347 c 3.111,0 5.267,-0.624 6.475,-1.873 v 0 c 1.202,-1.248 1.806,-2.947 1.806,-5.093 v 0 c 0,-1.096 -0.142,-2.103 -0.427,-3.023 v 0 c -0.287,-0.921 -0.745,-1.709 -1.379,-2.366 v 0 c -0.638,-0.657 -1.479,-1.161 -2.531,-1.512 v 0 c -1.051,-0.351 -2.366,-0.526 -3.944,-0.526 v 0 h -7.689 c -0.441,0 -0.658,0.219 -0.658,0.657"
         id="path472" /></clipPath><linearGradient
       x1="0"
       y1="0"
       x2="1"
       y2="0"
       gradientUnits="userSpaceOnUse"
       gradientTransform="matrix(0,-47.798142,-47.798142,0,739.60449,513.74707)"
       spreadMethod="pad"
       id="linearGradient486"><stop
         style="stop-opacity:1;stop-color:#7a9298"
         offset="0"
         id="stop480" /><stop
         style="stop-opacity:1;stop-color:#405d64"
         offset="0.539322"
         id="stop482" /><stop
         style="stop-opacity:1;stop-color:#163538"
         offset="1"
         id="stop484" /></linearGradient><clipPath
       clipPathUnits="userSpaceOnUse"
       id="clipPath496"><path
         d="m 782.493,508.144 v -26.223 c 0,-3.287 -0.811,-5.686 -2.432,-7.197 v 0 c -1.62,-1.511 -3.811,-2.267 -6.57,-2.267 v 0 c -2.762,0 -4.921,0.756 -6.473,2.267 v 0 c -1.558,1.511 -2.335,3.91 -2.335,7.197 v 0 26.223 H 759.36 V 481.46 c 0,-4.294 1.269,-7.613 3.812,-9.956 v 0 c 2.54,-2.344 5.981,-3.517 10.319,-3.517 v 0 c 4.599,0 8.125,1.173 10.58,3.517 v 0 c 2.453,2.343 3.682,5.662 3.682,9.956 v 0 26.684 z"
         id="path494" /></clipPath><linearGradient
       x1="0"
       y1="0"
       x2="1"
       y2="0"
       gradientUnits="userSpaceOnUse"
       gradientTransform="matrix(0,-47.798157,-47.798157,0,773.55664,513.74707)"
       spreadMethod="pad"
       id="linearGradient508"><stop
         style="stop-opacity:1;stop-color:#7a9298"
         offset="0"
         id="stop502" /><stop
         style="stop-opacity:1;stop-color:#405d64"
         offset="0.539322"
         id="stop504" /><stop
         style="stop-opacity:1;stop-color:#163538"
         offset="1"
         id="stop506" /></linearGradient><clipPath
       clipPathUnits="userSpaceOnUse"
       id="clipPath518"><path
         d="M 0,595.28 H 841.89 V 0 H 0 Z"
         id="path516" /></clipPath><clipPath
       clipPathUnits="userSpaceOnUse"
       id="clipPath546"><path
         d="m 507.333,505.097 c 0.577,0.582 0.72,0.397 0.304,-0.703 v 0 c 0.229,-0.49 0.539,-1.104 0.963,-1.884 v 0 l 2.143,-3.319 c 0.146,-0.518 -1.16,-0.033 -0.233,-1.682 v 0 c 1.228,-2.334 6.398,-9.967 9.053,-14.498 v 0 c 2.062,-3.541 4.152,-7.181 6.209,-10.887 v 0 c 1.028,-1.854 2.047,-3.724 3.05,-5.607 v 0 l 0.75,-1.414 0.279,-0.534 0.058,-0.121 c 0.07,-0.155 0.159,-0.318 0.199,-0.44 v 0 l -0.391,0.108 -0.187,0.048 -0.854,0.183 c -1.652,0.344 -3.312,0.633 -4.966,0.896 v 0 c -3.172,0.497 -6.336,0.846 -9.454,1.066 v 0 l -1.172,-2.848 c 3.109,-0.168 6.201,-0.482 9.271,-0.943 v 0 c 1.712,-0.253 3.418,-0.558 5.117,-0.903 v 0 l 0.637,-0.127 0.805,-0.179 c 0.755,-0.166 1.505,-0.324 2.279,-0.517 v 0 l 4.616,-1.122 c -1.032,2.039 -9.049,17.235 -9.049,17.235 v 0 c -3.473,6.057 -7.141,12.064 -10.912,18.102 v 0 c -1.59,2.493 -3.096,4.551 -4.406,6.237 v 0 c 0.204,-0.425 0.468,-0.941 0.779,-1.526 v 0 c -0.244,0.395 -0.49,0.788 -0.733,1.182 v 0 l -1.004,1.651 -1.453,1.768 c -0.813,0.925 -1.501,1.596 -1.761,1.596 v 0 c -0.156,0 -0.157,-0.243 0.063,-0.818"
         id="path544" /></clipPath><linearGradient
       x1="0"
       y1="0"
       x2="1"
       y2="0"
       gradientUnits="userSpaceOnUse"
       gradientTransform="matrix(0,-39.368027,-39.368027,0,521.48438,494.99756)"
       spreadMethod="pad"
       id="linearGradient558"><stop
         style="stop-opacity:1;stop-color:#7a9298"
         offset="0"
         id="stop552" /><stop
         style="stop-opacity:1;stop-color:#405d64"
         offset="0.539322"
         id="stop554" /><stop
         style="stop-opacity:1;stop-color:#163538"
         offset="1"
         id="stop556" /></linearGradient><clipPath
       clipPathUnits="userSpaceOnUse"
       id="clipPath568"><path
         d="m 501.565,497.373 -0.28,0.148 c 3.745,6.424 3.213,6.213 2.679,6.001 v 0 c -0.222,-0.087 -0.445,-0.175 -0.357,0.216 v 0 c -2.589,-4.58 -5.243,-9.135 -7.984,-13.654 v 0 l -2.512,-4.637 c -2.04,-3.814 -4.02,-7.624 -5.921,-11.439 v 0 c -0.952,-1.908 -1.884,-3.817 -2.799,-5.73 v 0 l -1.678,-3.553 -2.478,-5.377 5.877,1.411 2.23,0.481 1.515,0.294 c 2.022,0.377 4.053,0.692 6.088,0.944 v 0 c 2.473,0.306 4.952,0.509 7.434,0.629 v 0 l -1.45,3.521 c -1.271,-0.073 -2.54,-0.163 -3.805,-0.286 v 0 c -2.568,-0.254 -5.125,-0.599 -7.662,-1.052 v 0 l -1.9,-0.356 -0.946,-0.189 -0.782,-0.169 -0.201,-0.073 c -0.002,0.019 0.011,0.052 0.019,0.082 v 0 l 0.022,0.078 0.015,0.046 0.234,0.51 1.168,2.471 c 0.789,1.649 1.598,3.302 2.425,4.945 v 0 c 1.65,3.29 3.355,6.553 5.056,9.729 v 0 c 3.401,6.353 6.77,12.365 9.534,17.593 v 0 c 1.186,2.251 1.91,3.782 2.253,4.693 v 0 c -0.128,0.272 -0.23,0.507 -0.304,0.701 v 0 c -0.917,-0.928 -2.922,-3.792 -5.49,-7.978"
         id="path566" /></clipPath><linearGradient
       x1="0"
       y1="0"
       x2="1"
       y2="0"
       gradientUnits="userSpaceOnUse"
       gradientTransform="matrix(0,-35.392273,-35.392273,0,493.79687,491.42969)"
       spreadMethod="pad"
       id="linearGradient580"><stop
         style="stop-opacity:1;stop-color:#7a9298"
         offset="0"
         id="stop574" /><stop
         style="stop-opacity:1;stop-color:#405d64"
         offset="0.539322"
         id="stop576" /><stop
         style="stop-opacity:1;stop-color:#163538"
         offset="1"
         id="stop578" /></linearGradient><clipPath
       clipPathUnits="userSpaceOnUse"
       id="clipPath590"><path
         d="M 0,595.28 H 841.89 V 0 H 0 Z"
         id="path588" /></clipPath><clipPath
       clipPathUnits="userSpaceOnUse"
       id="clipPath684"><path
         d="m 664.292,199.943 c -5.501,0 -10.001,-4.5 -10.001,-10.001 v 0 -58.39 c 0,-5.502 4.5,-10.002 10.001,-10.002 v 0 h 58.392 c 5.501,0 10.001,4.5 10.001,10.002 v 0 58.39 c 0,5.501 -4.5,10.001 -10.001,10.001 v 0 z"
         id="path682" /></clipPath><linearGradient
       x1="0"
       y1="0"
       x2="1"
       y2="0"
       gradientUnits="userSpaceOnUse"
       gradientTransform="matrix(0,-74.107101,-74.107101,0,693.48828,200.91309)"
       spreadMethod="pad"
       id="linearGradient696"><stop
         style="stop-opacity:1;stop-color:#7a9298"
         offset="0"
         id="stop690" /><stop
         style="stop-opacity:1;stop-color:#405d64"
         offset="0.539322"
         id="stop692" /><stop
         style="stop-opacity:1;stop-color:#163538"
         offset="1"
         id="stop694" /></linearGradient><clipPath
       clipPathUnits="userSpaceOnUse"
       id="clipPath706"><path
         d="m 664.292,109.943 c -5.501,0 -10.001,-4.5 -10.001,-10.001 v 0 -58.39 c 0,-5.502 4.5,-10.002 10.001,-10.002 v 0 h 58.392 c 5.501,0 10.001,4.5 10.001,10.002 v 0 58.39 c 0,5.501 -4.5,10.001 -10.001,10.001 v 0 z"
         id="path704" /></clipPath><linearGradient
       x1="0"
       y1="0"
       x2="1"
       y2="0"
       gradientUnits="userSpaceOnUse"
       gradientTransform="matrix(0,-74.107101,-74.107101,0,693.48828,110.91309)"
       spreadMethod="pad"
       id="linearGradient718"><stop
         style="stop-opacity:1;stop-color:#7a9298"
         offset="0"
         id="stop712" /><stop
         style="stop-opacity:1;stop-color:#405d64"
         offset="0.539322"
         id="stop714" /><stop
         style="stop-opacity:1;stop-color:#163538"
         offset="1"
         id="stop716" /></linearGradient><clipPath
       clipPathUnits="userSpaceOnUse"
       id="clipPath728"><path
         d="M 0,595.28 H 841.89 V 0 H 0 Z"
         id="path726" /></clipPath><clipPath
       clipPathUnits="userSpaceOnUse"
       id="clipPath764"><path
         d="m 533.604,307.182 c -3.648,0 -6.632,-2.985 -6.632,-6.632 v 0 -47.644 c 0,-3.647 2.984,-6.632 6.632,-6.632 v 0 h 226.312 c 3.648,0 6.632,2.985 6.632,6.632 v 0 47.644 c 0,3.647 -2.984,6.632 -6.632,6.632 v 0 z"
         id="path762" /></clipPath><linearGradient
       x1="0"
       y1="0"
       x2="1"
       y2="0"
       gradientUnits="userSpaceOnUse"
       gradientTransform="matrix(0,-44.181793,-44.181793,0,646.75977,306.19141)"
       spreadMethod="pad"
       id="linearGradient776"><stop
         style="stop-opacity:1;stop-color:#7a9298"
         offset="0"
         id="stop770" /><stop
         style="stop-opacity:1;stop-color:#405d64"
         offset="0.539322"
         id="stop772" /><stop
         style="stop-opacity:1;stop-color:#163538"
         offset="1"
         id="stop774" /></linearGradient><clipPath
       clipPathUnits="userSpaceOnUse"
       id="clipPath786"><path
         d="M 0,595.28 H 841.89 V 0 H 0 Z"
         id="path784" /></clipPath><clipPath
       clipPathUnits="userSpaceOnUse"
       id="clipPath856"><path
         d="m 246.41,266.351 c -1.328,-1.416 -1.993,-3.709 -1.993,-6.878 v 0 c 0,-3.229 0.665,-5.58 1.993,-7.056 v 0 c 1.328,-1.476 3.302,-2.215 5.919,-2.215 v 0 c 0.728,0 1.432,0.065 2.112,0.192 v 0 c 0.678,0.128 1.274,0.299 1.785,0.516 v 0 c 0.728,0.316 1.216,0.675 1.462,1.078 v 0 c 0.246,0.403 0.369,0.999 0.369,1.787 v 0 3.484 c 0,0.688 -0.206,1.263 -0.619,1.726 v 0 c -0.414,0.462 -1.033,0.694 -1.861,0.694 v 0 h -4.694 v -2.687 h 3.897 v -3.69 c -0.728,-0.276 -1.545,-0.413 -2.451,-0.413 v 0 c -1.535,0 -2.692,0.516 -3.469,1.549 v 0 c -0.777,1.033 -1.166,2.712 -1.166,5.035 v 0 c 0,2.283 0.389,3.916 1.166,4.9 v 0 c 0.777,0.985 1.934,1.476 3.469,1.476 v 0 c 0.355,0 0.734,-0.048 1.137,-0.147 v 0 c 0.403,-0.099 0.802,-0.236 1.196,-0.413 v 0 c 0.393,-0.178 0.768,-0.379 1.123,-0.605 v 0 c 0.353,-0.227 0.667,-0.468 0.944,-0.724 v 0 l 1.299,2.48 c -0.669,0.531 -1.506,1.004 -2.51,1.417 v 0 c -1.003,0.413 -2.067,0.619 -3.189,0.619 v 0 c -2.617,0 -4.591,-0.707 -5.919,-2.125"
         id="path854" /></clipPath><linearGradient
       x1="0"
       y1="0"
       x2="1"
       y2="0"
       gradientUnits="userSpaceOnUse"
       gradientTransform="matrix(0,-21.470795,-21.470795,0,251.2373,270.75684)"
       spreadMethod="pad"
       id="linearGradient868"><stop
         style="stop-opacity:1;stop-color:#8e8e8e"
         offset="0"
         id="stop862" /><stop
         style="stop-opacity:1;stop-color:#4b4b4a"
         offset="0.539322"
         id="stop864" /><stop
         style="stop-opacity:1;stop-color:#1d1d1b"
         offset="1"
         id="stop866" /></linearGradient><clipPath
       clipPathUnits="userSpaceOnUse"
       id="clipPath878"><path
         d="m 263.109,268.359 c -0.808,0 -1.418,-0.231 -1.831,-0.694 v 0 c -0.413,-0.462 -0.62,-1.048 -0.62,-1.756 v 0 -13.109 c 0,-0.708 0.207,-1.29 0.62,-1.741 v 0 c 0.413,-0.453 1.023,-0.68 1.831,-0.68 v 0 h 9.329 v 2.657 h -8.503 v 5.492 h 6.997 v 2.656 h -6.997 v 4.489 h 8.503 v 2.686 z"
         id="path876" /></clipPath><linearGradient
       x1="0"
       y1="0"
       x2="1"
       y2="0"
       gradientUnits="userSpaceOnUse"
       gradientTransform="matrix(0,-21.472458,-21.472458,0,266.54785,270.75879)"
       spreadMethod="pad"
       id="linearGradient890"><stop
         style="stop-opacity:1;stop-color:#8e8e8e"
         offset="0"
         id="stop884" /><stop
         style="stop-opacity:1;stop-color:#4b4b4a"
         offset="0.539322"
         id="stop886" /><stop
         style="stop-opacity:1;stop-color:#1d1d1b"
         offset="1"
         id="stop888" /></linearGradient><clipPath
       clipPathUnits="userSpaceOnUse"
       id="clipPath900"><path
         d="m 275.44,266.189 c -1.191,-1.525 -1.786,-3.764 -1.786,-6.716 v 0 c 0,-2.972 0.6,-5.261 1.801,-6.865 v 0 c 1.2,-1.604 3.06,-2.406 5.58,-2.406 v 0 c 2.519,0 4.374,0.802 5.565,2.406 v 0 c 1.191,1.604 1.786,3.893 1.786,6.865 v 0 c 0,2.952 -0.59,5.191 -1.771,6.716 v 0 c -1.181,1.526 -3.041,2.287 -5.58,2.287 v 0 c -2.539,0 -4.404,-0.761 -5.595,-2.287 m 2.421,-11.603 c -0.639,1.132 -0.96,2.761 -0.96,4.887 v 0 c 0,2.125 0.321,3.719 0.96,4.783 v 0 c 0.639,1.062 1.698,1.593 3.174,1.593 v 0 c 1.476,0 2.533,-0.531 3.173,-1.593 v 0 c 0.64,-1.064 0.96,-2.658 0.96,-4.783 v 0 c 0,-2.126 -0.32,-3.755 -0.96,-4.887 v 0 c -0.64,-1.131 -1.697,-1.697 -3.173,-1.697 v 0 c -1.476,0 -2.535,0.566 -3.174,1.697"
         id="path898" /></clipPath><linearGradient
       x1="0"
       y1="0"
       x2="1"
       y2="0"
       gradientUnits="userSpaceOnUse"
       gradientTransform="matrix(0,-21.470795,-21.470795,0,281.02002,270.75684)"
       spreadMethod="pad"
       id="linearGradient912"><stop
         style="stop-opacity:1;stop-color:#8e8e8e"
         offset="0"
         id="stop906" /><stop
         style="stop-opacity:1;stop-color:#4b4b4a"
         offset="0.539322"
         id="stop908" /><stop
         style="stop-opacity:1;stop-color:#1d1d1b"
         offset="1"
         id="stop910" /></linearGradient><clipPath
       clipPathUnits="userSpaceOnUse"
       id="clipPath922"><path
         d="m 289.23,268.241 v -2.008 h 5.492 v -15.854 h 2.361 v 15.854 h 5.462 v 2.008 z"
         id="path920" /></clipPath><linearGradient
       x1="0"
       y1="0"
       x2="1"
       y2="0"
       gradientUnits="userSpaceOnUse"
       gradientTransform="matrix(0,-21.472275,-21.472275,0,295.8877,270.75781)"
       spreadMethod="pad"
       id="linearGradient934"><stop
         style="stop-opacity:1;stop-color:#8e8e8e"
         offset="0"
         id="stop928" /><stop
         style="stop-opacity:1;stop-color:#4b4b4a"
         offset="0.539322"
         id="stop930" /><stop
         style="stop-opacity:1;stop-color:#1d1d1b"
         offset="1"
         id="stop932" /></linearGradient><clipPath
       clipPathUnits="userSpaceOnUse"
       id="clipPath944"><path
         d="m 306.781,268.241 c -0.63,0 -1.126,-0.197 -1.49,-0.591 v 0 c -0.364,-0.393 -0.546,-0.905 -0.546,-1.534 v 0 -15.737 h 2.361 v 7.233 h 3.603 c 1.239,0 2.199,-0.35 2.879,-1.047 v 0 c 0.678,-0.699 1.018,-1.767 1.018,-3.203 v 0 -2.983 h 2.391 v 3.159 c 0,1.122 -0.221,2.112 -0.664,2.968 v 0 c -0.444,0.855 -1.107,1.51 -1.994,1.962 v 0 c 0.964,0.375 1.649,0.96 2.052,1.758 v 0 c 0.404,0.796 0.606,1.696 0.606,2.701 v 0 c 0,1.614 -0.482,2.903 -1.446,3.867 v 0 c -0.965,0.965 -2.529,1.447 -4.695,1.447 v 0 z m 0.325,-2.303 c 0,0.196 0.099,0.295 0.295,0.295 v 0 h 3.455 c 1.417,0 2.397,-0.299 2.937,-0.9 v 0 c 0.542,-0.601 0.813,-1.403 0.813,-2.406 v 0 c 0,-1.005 -0.271,-1.806 -0.813,-2.407 v 0 c -0.54,-0.6 -1.52,-0.9 -2.937,-0.9 v 0 h -3.75 z"
         id="path942" /></clipPath><linearGradient
       x1="0"
       y1="0"
       x2="1"
       y2="0"
       gradientUnits="userSpaceOnUse"
       gradientTransform="matrix(0,-21.472275,-21.472275,0,310.87061,270.75781)"
       spreadMethod="pad"
       id="linearGradient956"><stop
         style="stop-opacity:1;stop-color:#8e8e8e"
         offset="0"
         id="stop950" /><stop
         style="stop-opacity:1;stop-color:#4b4b4a"
         offset="0.539322"
         id="stop952" /><stop
         style="stop-opacity:1;stop-color:#1d1d1b"
         offset="1"
         id="stop954" /></linearGradient><clipPath
       clipPathUnits="userSpaceOnUse"
       id="clipPath966"><path
         d="m 320.548,250.379 h 2.362 v 17.862 h -2.362 z"
         id="path964" /></clipPath><linearGradient
       x1="0"
       y1="0"
       x2="1"
       y2="0"
       gradientUnits="userSpaceOnUse"
       gradientTransform="matrix(0,-21.472275,-21.472275,0,321.72949,270.75781)"
       spreadMethod="pad"
       id="linearGradient978"><stop
         style="stop-opacity:1;stop-color:#8e8e8e"
         offset="0"
         id="stop972" /><stop
         style="stop-opacity:1;stop-color:#4b4b4a"
         offset="0.539322"
         id="stop974" /><stop
         style="stop-opacity:1;stop-color:#1d1d1b"
         offset="1"
         id="stop976" /></linearGradient><clipPath
       clipPathUnits="userSpaceOnUse"
       id="clipPath988"><path
         d="m 328.607,268.241 c -0.63,0 -1.131,-0.197 -1.506,-0.591 v 0 c -0.373,-0.393 -0.56,-0.905 -0.56,-1.534 v 0 -13.641 c 0,-0.629 0.187,-1.136 0.56,-1.52 v 0 c 0.375,-0.383 0.876,-0.576 1.506,-0.576 v 0 h 4.074 c 2.166,0 3.725,0.482 4.68,1.447 v 0 c 0.955,0.964 1.432,2.254 1.432,3.868 v 0 c 0,0.945 -0.196,1.785 -0.591,2.524 v 0 c -0.393,0.738 -1.003,1.293 -1.83,1.668 v 0 c 0.61,0.314 1.072,0.782 1.388,1.402 v 0 c 0.314,0.62 0.473,1.314 0.473,2.082 v 0 c 0,0.748 -0.105,1.421 -0.31,2.022 v 0 c -0.207,0.6 -0.533,1.111 -0.975,1.535 v 0 c -0.443,0.423 -1.013,0.747 -1.712,0.974 v 0 c -0.7,0.227 -1.549,0.34 -2.555,0.34 v 0 z m 0.326,-2.303 c 0,0.196 0.097,0.295 0.294,0.295 v 0 h 3.454 c 1.222,0 2.057,-0.255 2.51,-0.767 v 0 c 0.452,-0.513 0.68,-1.21 0.68,-2.096 v 0 c 0,-0.846 -0.238,-1.486 -0.71,-1.92 v 0 c -0.472,-0.432 -1.298,-0.649 -2.48,-0.649 v 0 h -3.748 z m 0,-13.285 v 6.17 h 3.748 c 1.398,0 2.367,-0.28 2.91,-0.842 v 0 c 0.54,-0.56 0.811,-1.323 0.811,-2.287 v 0 c 0,-0.493 -0.064,-0.945 -0.192,-1.359 v 0 c -0.129,-0.414 -0.335,-0.766 -0.619,-1.062 v 0 c -0.286,-0.296 -0.665,-0.522 -1.138,-0.679 v 0 c -0.472,-0.158 -1.062,-0.237 -1.772,-0.237 v 0 h -3.454 c -0.197,0 -0.294,0.098 -0.294,0.296"
         id="path986" /></clipPath><linearGradient
       x1="0"
       y1="0"
       x2="1"
       y2="0"
       gradientUnits="userSpaceOnUse"
       gradientTransform="matrix(0,-21.472275,-21.472275,0,332.66699,270.75781)"
       spreadMethod="pad"
       id="linearGradient1000"><stop
         style="stop-opacity:1;stop-color:#8e8e8e"
         offset="0"
         id="stop994" /><stop
         style="stop-opacity:1;stop-color:#4b4b4a"
         offset="0.539322"
         id="stop996" /><stop
         style="stop-opacity:1;stop-color:#1d1d1b"
         offset="1"
         id="stop998" /></linearGradient><clipPath
       clipPathUnits="userSpaceOnUse"
       id="clipPath1010"><path
         d="m 351.933,268.241 v -11.78 c 0,-1.476 -0.363,-2.554 -1.091,-3.232 v 0 c -0.729,-0.68 -1.713,-1.019 -2.952,-1.019 v 0 c -1.242,0 -2.21,0.339 -2.908,1.019 v 0 c -0.7,0.678 -1.05,1.756 -1.05,3.232 v 0 11.78 h -2.39 v -11.987 c 0,-1.928 0.57,-3.42 1.712,-4.473 v 0 c 1.141,-1.053 2.687,-1.579 4.636,-1.579 v 0 c 2.066,0 3.65,0.526 4.752,1.579 v 0 c 1.102,1.053 1.654,2.545 1.654,4.473 v 0 11.987 z"
         id="path1008" /></clipPath><linearGradient
       x1="0"
       y1="0"
       x2="1"
       y2="0"
       gradientUnits="userSpaceOnUse"
       gradientTransform="matrix(0,-21.47171,-21.47171,0,347.91895,270.75781)"
       spreadMethod="pad"
       id="linearGradient1022"><stop
         style="stop-opacity:1;stop-color:#8e8e8e"
         offset="0"
         id="stop1016" /><stop
         style="stop-opacity:1;stop-color:#4b4b4a"
         offset="0.539322"
         id="stop1018" /><stop
         style="stop-opacity:1;stop-color:#1d1d1b"
         offset="1"
         id="stop1020" /></linearGradient><clipPath
       clipPathUnits="userSpaceOnUse"
       id="clipPath1032"><path
         d="M 0,595.28 H 841.89 V 0 H 0 Z"
         id="path1030" /></clipPath><clipPath
       clipPathUnits="userSpaceOnUse"
       id="clipPath1056"><path
         d="m 298.75,300.563 c 0.302,0.305 0.377,0.209 0.159,-0.368 v 0 c 0.12,-0.257 0.282,-0.579 0.505,-0.987 v 0 l 1.123,-1.74 c 0.077,-0.272 -0.608,-0.017 -0.122,-0.882 v 0 c 0.644,-1.224 3.354,-5.224 4.745,-7.598 v 0 c 1.08,-1.857 2.176,-3.765 3.254,-5.707 v 0 c 0.539,-0.971 1.073,-1.951 1.599,-2.938 v 0 l 0.392,-0.742 0.147,-0.279 0.03,-0.065 c 0.037,-0.08 0.083,-0.165 0.104,-0.23 v 0 l -0.205,0.057 -0.097,0.026 -0.448,0.095 c -0.866,0.181 -1.735,0.332 -2.603,0.471 v 0 c -1.662,0.259 -3.32,0.443 -4.954,0.559 v 0 l -0.614,-1.494 c 1.629,-0.087 3.249,-0.253 4.858,-0.494 v 0 c 0.897,-0.132 1.791,-0.292 2.682,-0.474 v 0 l 0.335,-0.066 0.422,-0.094 c 0.395,-0.087 0.787,-0.17 1.193,-0.271 v 0 l 2.42,-0.588 c -0.542,1.069 -4.744,9.033 -4.744,9.033 v 0 c -1.82,3.175 -3.743,6.323 -5.718,9.488 v 0 c -0.834,1.306 -1.623,2.385 -2.31,3.269 v 0 c 0.107,-0.222 0.246,-0.493 0.409,-0.8 v 0 c -0.129,0.207 -0.257,0.413 -0.384,0.619 v 0 l -0.527,0.866 -0.761,0.926 c -0.426,0.485 -0.787,0.836 -0.923,0.836 v 0 c -0.082,0 -0.083,-0.127 0.033,-0.428"
         id="path1054" /></clipPath><linearGradient
       x1="0"
       y1="0"
       x2="1"
       y2="0"
       gradientUnits="userSpaceOnUse"
       gradientTransform="matrix(0,-20.634033,-20.634033,0,306.1665,295.27051)"
       spreadMethod="pad"
       id="linearGradient1068"><stop
         style="stop-opacity:1;stop-color:#8e8e8e"
         offset="0"
         id="stop1062" /><stop
         style="stop-opacity:1;stop-color:#4b4b4a"
         offset="0.539322"
         id="stop1064" /><stop
         style="stop-opacity:1;stop-color:#1d1d1b"
         offset="1"
         id="stop1066" /></linearGradient><clipPath
       clipPathUnits="userSpaceOnUse"
       id="clipPath1078"><path
         d="m 295.727,296.515 -0.147,0.078 c 1.964,3.367 1.684,3.256 1.404,3.145 v 0 c -0.116,-0.046 -0.233,-0.092 -0.187,0.113 v 0 c -1.357,-2.4 -2.747,-4.788 -4.185,-7.156 v 0 l -1.316,-2.431 c -1.069,-1.998 -2.106,-3.996 -3.103,-5.994 v 0 c -0.5,-1 -0.988,-2.002 -1.467,-3.005 v 0 l -0.88,-1.861 -1.299,-2.818 3.079,0.739 1.17,0.252 0.793,0.153 c 1.061,0.2 2.126,0.364 3.192,0.497 v 0 c 1.296,0.16 2.596,0.265 3.897,0.328 v 0 l -0.76,1.845 c -0.666,-0.037 -1.331,-0.083 -1.995,-0.149 v 0 c -1.345,-0.133 -2.686,-0.313 -4.015,-0.551 v 0 l -0.996,-0.186 -0.496,-0.1 -0.41,-0.088 -0.106,-0.039 c 0,0.01 0.006,0.027 0.01,0.043 v 0 l 0.012,0.041 0.008,0.023 0.123,0.268 0.612,1.296 c 0.413,0.864 0.838,1.729 1.272,2.591 v 0 c 0.864,1.724 1.757,3.436 2.648,5.099 v 0 c 1.783,3.331 3.549,6.482 4.998,9.221 v 0 c 0.621,1.18 1,1.982 1.181,2.459 v 0 c -0.067,0.143 -0.121,0.267 -0.159,0.369 v 0 c -0.481,-0.487 -1.533,-1.988 -2.878,-4.182"
         id="path1076" /></clipPath><linearGradient
       x1="0"
       y1="0"
       x2="1"
       y2="0"
       gradientUnits="userSpaceOnUse"
       gradientTransform="matrix(0,-18.550201,-18.550201,0,291.65527,293.40039)"
       spreadMethod="pad"
       id="linearGradient1090"><stop
         style="stop-opacity:1;stop-color:#8e8e8e"
         offset="0"
         id="stop1084" /><stop
         style="stop-opacity:1;stop-color:#4b4b4a"
         offset="0.539322"
         id="stop1086" /><stop
         style="stop-opacity:1;stop-color:#1d1d1b"
         offset="1"
         id="stop1088" /></linearGradient><clipPath
       clipPathUnits="userSpaceOnUse"
       id="clipPath1100"><path
         d="M 0,595.28 H 841.89 V 0 H 0 Z"
         id="path1098" /></clipPath><clipPath
       clipPathUnits="userSpaceOnUse"
       id="clipPath1286"><path
         d="m 236.464,205.305 c -3.118,0 -5.67,-2.55 -5.67,-5.668 v 0 -67.055 c 0,-3.118 2.552,-5.669 5.67,-5.669 v 0 h 124.687 c 3.119,0 5.67,2.551 5.67,5.669 v 0 67.055 c 0,3.118 -2.551,5.668 -5.67,5.668 v 0 z"
         id="path1284" /></clipPath><linearGradient
       x1="0"
       y1="0"
       x2="1"
       y2="0"
       gradientUnits="userSpaceOnUse"
       gradientTransform="matrix(0,-54.502289,-54.502289,0,298.80762,201.78125)"
       spreadMethod="pad"
       id="linearGradient1298"><stop
         style="stop-opacity:1;stop-color:#7a9298"
         offset="0"
         id="stop1292" /><stop
         style="stop-opacity:1;stop-color:#405d64"
         offset="0.539322"
         id="stop1294" /><stop
         style="stop-opacity:1;stop-color:#163538"
         offset="1"
         id="stop1296" /></linearGradient><clipPath
       clipPathUnits="userSpaceOnUse"
       id="clipPath1308"><path
         d="M 0,595.28 H 841.89 V 0 H 0 Z"
         id="path1306" /></clipPath></defs><sodipodi:namedview
     pagecolor="#ffffff"
     bordercolor="#666666"
     borderopacity="1"
     objecttolerance="10"
     gridtolerance="10"
     guidetolerance="10"
     inkscape:pageopacity="0"
     inkscape:pageshadow="2"
     inkscape:window-width="1848"
     inkscape:window-height="1016"
     id="namedview12"
     showgrid="false"
     inkscape:zoom="1.0394268"
     inkscape:cx="-311.12797"
     inkscape:cy="-130.26268"
     inkscape:window-x="72"
     inkscape:window-y="27"
     inkscape:window-maximized="1"
     inkscape:current-layer="g18" /><g
     id="g18"
     inkscape:groupmode="layer"
     inkscape:label="Planche geotribu2013"
     transform="matrix(1.3333333,0,0,-1.3333333,-872.38798,266.59066)"><g
       id="g678"><g
         id="g680"
         clip-path="url(#clipPath684)"><g
           id="g686"><g
             id="g688"><path
               d="m 664.292,199.943 c -5.501,0 -10.001,-4.5 -10.001,-10.001 v 0 -58.39 c 0,-5.502 4.5,-10.002 10.001,-10.002 v 0 h 58.392 c 5.501,0 10.001,4.5 10.001,10.002 v 0 58.39 c 0,5.501 -4.5,10.001 -10.001,10.001 v 0 z"
               style="fill:url(#linearGradient696);stroke:none"
               id="path698" /></g></g></g></g><g
       id="g722"><g
         id="g724"
         clip-path="url(#clipPath728)"><g
           id="g730"
           transform="translate(693.4883,143.9502)"><path
             d="m 0,0 c -1.32,0 -2.394,1.065 -2.394,2.381 0,1.316 1.074,2.381 2.394,2.381 1.321,0 2.392,-1.065 2.392,-2.381 C 2.392,1.065 1.321,0 0,0 m 0,7.816 c -3.176,0 -5.748,-2.563 -5.748,-5.719 0,-3.16 5.748,-13.205 5.748,-13.205 0,0 5.749,10.045 5.749,13.205 0,3.156 -2.572,5.719 -5.749,5.719"
             style="fill:#ffffff;fill-opacity:1;fill-rule:nonzero;stroke:none"
             id="path732" /></g><g
           id="g734"
           transform="translate(684.5557,185.708)"><path
             d="m 0,0 0.083,-0.142 c 0.529,-0.86 1.208,-1.631 1.869,-2.55 0.444,-0.657 1.06,-1.339 1.563,-1.96 -1.14,1.507 -2.448,3.014 -3.331,4.568 C 0.37,-0.182 0.564,-0.313 0.722,-0.512 1.07,-1.006 1.43,-1.486 1.797,-1.959 L 1.672,-2.04 c 1.175,-1.257 1.957,-2.646 3.174,-3.897 -0.019,0.06 0.029,0.047 0.058,0.049 l 0.008,-0.01 -0.008,0.01 c 0.027,0.002 0.035,0.018 -0.029,0.102 0.064,-0.084 0.056,-0.1 0.029,-0.102 -1.078,1.312 -2.063,2.542 -3.067,3.874 1.596,-2.043 3.299,-3.947 4.867,-6.139 l 0.264,-0.373 c 0.165,-0.43 -0.056,-0.24 0.2,-0.62 -0.231,0.005 -0.314,-0.546 -0.754,0.242 L 6.281,-8.975 c 0.338,-0.842 0.042,-1.359 -0.581,-0.689 -0.689,0.76 -0.891,1.332 -1.712,2.273 -0.577,0.695 -1.174,1.375 -1.685,2.119 -0.692,1.028 -1.606,2.059 -2.271,3.119 -0.259,0.374 -0.854,0.941 -0.897,1.182 -0.059,0.158 0.005,0.203 0.098,0.232 l 1.374,-1.766 c 0.54,-0.725 1.081,-1.448 1.592,-2.187 -0.473,0.739 -1.025,1.461 -1.592,2.187 -0.436,0.592 -0.876,1.183 -1.296,1.784 0.08,0.022 0.162,0.041 0.199,0.117 l -0.21,0.269 c -0.117,0.458 0.179,0.504 0.476,0.424 z"
             style="fill:#ffffff;fill-opacity:1;fill-rule:nonzero;stroke:none"
             id="path736" /></g><g
           id="g738"
           transform="translate(701.9854,185.0029)"><path
             d="m 0,0 -0.126,-0.119 c -0.729,-0.753 -1.35,-1.569 -2.138,-2.41 -0.569,-0.576 -1.121,-1.298 -1.624,-1.914 1.251,1.422 2.511,2.957 3.859,4.261 -0.038,-0.193 -0.116,-0.405 -0.275,-0.606 l -1.219,-1.386 -0.125,0.081 c -0.994,-1.386 -2.272,-2.442 -3.159,-3.875 0.054,0.037 0.057,-0.008 0.073,-0.029 l -0.006,-0.011 0.006,0.011 c 0.01,-0.022 0.029,-0.024 0.092,0.059 -0.063,-0.083 -0.082,-0.081 -0.092,-0.059 0.996,1.326 2.037,2.508 3.166,3.771 -1.721,-1.983 -2.559,-2.949 -4.079,-5.076 l -0.259,-0.363 c -0.357,-0.309 -0.639,-0.66 -0.884,-1.033 -0.106,0.182 -0.695,-0.015 -0.122,0.696 l -0.136,0.072 c -0.669,-0.657 -1.332,-0.709 -0.962,0.127 0.44,0.93 0.661,0.993 1.369,2.033 0.528,0.749 1.071,1.488 1.712,2.156 0.892,0.916 1.739,1.985 2.65,2.872 0.319,0.331 0.716,1.01 0.95,1.129 0.146,0.098 0.219,0.061 0.277,-0.006 -0.469,-0.579 -0.94,-1.154 -1.42,-1.715 -0.606,-0.677 -1.224,-1.35 -1.863,-2.01 0.649,0.631 1.262,1.309 1.863,2.01 l 1.473,1.659 C -0.954,0.264 -0.9,0.201 -0.81,0.197 l 0.207,0.27 c 0.44,0.261 0.597,0.034 0.616,-0.245 z"
             style="fill:#ffffff;fill-opacity:1;fill-rule:nonzero;stroke:none"
             id="path740" /></g><g
           id="g742"
           transform="translate(692.9053,179.2256)"><path
             d="M 0,0 V 11.545"
             style="fill:#ffffff;fill-opacity:1;fill-rule:nonzero;stroke:none"
             id="path744" /></g><g
           id="g746"
           transform="translate(693.6006,190.2754)"><path
             d="m 0,0 -0.024,-0.146 c -0.118,-0.899 -0.078,-1.795 -0.157,-2.793 -0.08,-0.697 -0.04,-1.496 -0.04,-2.195 0.075,1.655 0.045,3.395 0.317,4.985 C 0.187,-0.311 0.261,-0.502 0.261,-0.726 0.224,-1.265 0.197,-1.795 0.181,-2.322 H 0.026 c 0.118,-1.496 -0.194,-2.892 0,-4.389 0.022,0.055 0.054,0.023 0.078,0.011 V -6.711 -6.7 c 0.024,-0.01 0.04,-0.003 0.04,0.089 0,-0.092 -0.016,-0.099 -0.04,-0.089 -0.041,1.471 0,2.848 0.075,4.318 -0.073,-2.283 0.002,-4.482 0.002,-6.823 V -9.603 C 0.063,-10.002 0.026,-10.4 0.026,-10.8 c -0.194,0.101 -0.586,-0.3 -0.508,0.499 h -0.155 c -0.194,-0.799 -0.74,-1.097 -0.894,-0.298 -0.159,0.897 0,2.093 -0.08,3.19 -0.04,0.798 -0.079,1.596 0,2.392 0.117,1.099 0.08,2.295 0.234,3.393 0.04,0.399 -0.077,1.098 0.04,1.298 0.056,0.142 0.139,0.147 0.232,0.126 L -1.14,-2.155 c -0.045,-0.794 -0.092,-1.586 -0.171,-2.379 0.107,0.774 0.15,1.572 0.171,2.379 l 0.11,1.934 c 0.077,-0.024 0.162,-0.047 0.239,-0.007 v 0.3 c 0.194,0.399 0.466,0.298 0.66,0.1 z"
             style="fill:#ffffff;fill-opacity:1;fill-rule:nonzero;stroke:none"
             id="path748" /></g><g
           id="g750"
           transform="translate(711.1709,147.2891)"><path
             d="m 0,0 c -3.277,5.716 -6.739,11.384 -10.299,17.081 -1.499,2.354 -2.921,4.294 -4.156,5.887 0.194,-0.402 0.442,-0.89 0.734,-1.441 -0.228,0.373 -0.46,0.743 -0.689,1.116 l -0.947,1.556 -1.372,1.669 c -1.227,1.397 -2.154,2.18 -1.603,0.734 0.543,0.55 0.679,0.376 0.288,-0.663 0.213,-0.463 0.508,-1.043 0.907,-1.779 l 2.024,-3.13 c 0.135,-0.489 -1.097,-0.031 -0.221,-1.588 1.158,-2.203 6.039,-9.405 8.542,-13.68 1.946,-3.341 3.919,-6.777 5.86,-10.274 0.969,-1.749 1.93,-3.514 2.878,-5.29 l 0.708,-1.336 0.261,-0.502 0.057,-0.115 c 0.066,-0.146 0.148,-0.3 0.188,-0.414 l -0.37,0.101 -0.176,0.047 -0.806,0.171 c -1.561,0.326 -3.126,0.598 -4.686,0.846 -2.993,0.469 -5.98,0.797 -8.92,1.005 l -1.107,-2.687 c 2.933,-0.158 5.851,-0.455 8.749,-0.889 1.616,-0.238 3.224,-0.528 4.827,-0.852 l 0.601,-0.121 0.759,-0.168 c 0.714,-0.157 1.422,-0.305 2.152,-0.488 l 4.353,-1.059 C 7.564,-14.339 0,0 0,0"
             style="fill:#ffffff;fill-opacity:1;fill-rule:nonzero;stroke:none"
             id="path752" /></g><g
           id="g754"
           transform="translate(684.1484,137.3223)"><path
             d="m 0,0 c -2.423,-0.24 -4.835,-0.566 -7.229,-0.992 l -1.792,-0.337 -0.895,-0.179 -0.737,-0.158 -0.189,-0.069 c -0.003,0.017 0.011,0.047 0.016,0.077 l 0.024,0.073 0.013,0.043 0.221,0.481 1.102,2.333 c 0.743,1.555 1.507,3.114 2.287,4.666 1.558,3.105 3.166,6.183 4.772,9.18 3.209,5.996 6.387,11.668 8.997,16.601 1.118,2.125 1.803,3.569 2.125,4.427 -0.12,0.257 -0.216,0.48 -0.288,0.663 C 7.564,35.934 5.671,33.231 3.248,29.28 l -0.266,0.14 c 5.008,8.588 1.914,4.611 2.191,5.867 -2.442,-4.321 -4.946,-8.62 -7.532,-12.883 l -2.37,-4.376 c -1.925,-3.6 -3.794,-7.194 -5.585,-10.796 -0.901,-1.799 -1.782,-3.601 -2.645,-5.405 l -1.581,-3.353 -2.341,-5.074 5.546,1.331 2.106,0.455 1.43,0.277 c 1.906,0.356 3.823,0.652 5.743,0.891 2.335,0.289 4.673,0.48 7.016,0.593 L 3.592,0.269 C 2.391,0.2 1.195,0.115 0,0"
             style="fill:#ffffff;fill-opacity:1;fill-rule:nonzero;stroke:none"
             id="path756" /></g></g></g></g></svg>
